<svg id="resume" xmlns="http://www.w3.org/2000/svg" viewBox="0 0 560 560"><defs><style>.cls-1,.cls-2{fill:none;}.cls-1{stroke:#000;stroke-miterlimit:10;stroke-width:20px;}</style></defs><title>brandoncaples</title><polygon class="cls-1" points="430 480 130 480 130 80 330 80 380 130 430 180 430 480"/><polyline class="cls-1" points="430 180 330 180 330 80"/><line class="cls-1" x1="180" y1="430" x2="380" y2="430"/><line class="cls-1" x1="180" y1="280" x2="380" y2="280"/><line class="cls-1" x1="180" y1="330" x2="380" y2="330"/><line class="cls-1" x1="180" y1="380" x2="380" y2="380"/><line class="cls-1" x1="180" y1="230" x2="380" y2="230"/><path d="M180,187.66V130.78h19.92q10.35,0,15.7,4T221,146.37a12.85,12.85,0,0,1-2.15,7.36,12.41,12.41,0,0,1-6,4.67,12,12,0,0,1,6.89,4.41,13.05,13.05,0,0,1,2.52,8.13q0,8.2-5.23,12.42t-14.92,4.3H180Zm11.72-33h8.67q8.87-.16,8.87-7.07,0-3.87-2.25-5.57t-7.09-1.7h-8.2v14.34Zm0,8.28v15.35h10a9.69,9.69,0,0,0,6.46-2,6.76,6.76,0,0,0,2.32-5.45q0-7.81-8.09-7.93H191.72Z"/><path d="M272.5,168.71q-0.67,9.18-6.78,14.45t-16.11,5.27q-10.94,0-17.21-7.36t-6.27-20.21v-3.48A34.08,34.08,0,0,1,229,142.93a21.66,21.66,0,0,1,8.26-9.59A23.14,23.14,0,0,1,249.77,130q9.84,0,15.86,5.27t7,14.8H260.86q-0.43-5.51-3.07-8t-8-2.48q-5.86,0-8.77,4.2t-3,13v4.3q0,9.22,2.79,13.48t8.81,4.26q5.43,0,8.11-2.48t3.07-7.68H272.5Z"/><rect class="cls-2" width="560" height="560"/></svg>