<svg id="thank-you" xmlns="http://www.w3.org/2000/svg" viewBox="0 0 560 560"><defs><style>.cls-1,.cls-2{fill:none;}.cls-1{stroke:#000;stroke-miterlimit:10;stroke-width:20px;}</style></defs><title>brandoncaples</title><path class="cls-1" d="M160,130H400a80,80,0,0,1,80,80V430a0,0,0,0,1,0,0H80a0,0,0,0,1,0,0V210A80,80,0,0,1,160,130Z"/><path class="cls-1" d="M160,130h0a80,80,0,0,1,80,80V430a0,0,0,0,1,0,0H80a0,0,0,0,1,0,0V210A80,80,0,0,1,160,130Z"/><line class="cls-1" x1="310" y1="50" x2="310" y2="240"/><rect class="cls-1" x="310" y="50" width="60" height="45"/><line class="cls-1" x1="120" y1="230" x2="200" y2="230"/><rect class="cls-2" width="560" height="560"/></svg>